<?xml version="1.0" encoding="UTF-8"?>
<svg id="Layer_1" data-name="Layer 1" xmlns="http://www.w3.org/2000/svg" viewBox="0 0 457.21 580.31">
  <defs>
    <style>
      .cls-1 {
        fill: #4b4ea1;
      }
    </style>
  </defs>
  <path class="cls-1" d="M215.04,407.83l-64.31,84.86-39.96-23.55,39.83-99.31c4.25-10.59-2.44-22.42-13.55-23.96l-104.14-14.45v-47.05l104.14-14.45c11.1-1.54,17.79-13.37,13.55-23.96l-39.83-99.31,39.96-23.55,64.31,84.86c6.86,9.05,20.24,9.05,27.1,0l64.35-84.86,39.96,23.55-39.83,99.31c-4.25,10.59,2.44,22.42,13.55,23.96l104.14,14.45v47.05l-104.14,14.45c-11.1,1.54-17.79,13.37-13.55,23.96l39.83,99.31-39.96,23.55-64.35-84.86c-6.86-9.05-20.24-9.04-27.1,0Z"/>
</svg>
