<?xml version="1.0" encoding="UTF-8"?><svg id="Layer_1" xmlns="http://www.w3.org/2000/svg" viewBox="0 0 391.39 369.59"><defs><style>.cls-1{fill:#cb2027;}</style></defs><path class="cls-1" d="M77.85,346.03l39.96,23.56H0v-161.27l104.13,14.45c11.11,1.54,17.8,13.37,13.55,23.95l-39.83,99.31Z"/><path class="cls-1" d="M0,0h117.81l-39.96,23.55,39.83,99.31c4.25,10.59-2.44,22.42-13.55,23.96L0,161.27V0Z"/><path class="cls-1" d="M209.22,284.73l64.35,84.86H117.81l64.31-84.86c6.86-9.05,20.24-9.05,27.1,0Z"/><path class="cls-1" d="M117.81,0h155.76l-64.35,84.86c-6.86,9.05-20.24,9.04-27.1,0L117.81,0Z"/><path class="cls-1" d="M391.39,0v161.27l-104.14-14.45c-11.1-1.54-17.79-13.37-13.54-23.96l39.83-99.31L273.57,0h117.82Z"/><path class="cls-1" d="M287.25,222.77l104.14-14.45v161.27h-117.82l39.97-23.56-39.83-99.31c-4.25-10.58,2.44-22.41,13.54-23.95Z"/></svg>
