<?xml version="1.0" encoding="UTF-8"?>
<svg id="Layer_1" data-name="Layer 1" xmlns="http://www.w3.org/2000/svg" viewBox="0 0 360 288">
  <defs>
    <style>
      .cls-1 {
        fill: #f15a26;
        stroke-width: 0px;
      }
    </style>
  </defs>
  <path class="cls-1" d="M75.06,57.11c33.76,0,49.39,16.14,49.39,49.9v12.17h-35.74v-12.17c0-9.18-3.23-15.14-12.42-15.14s-12.41,5.96-12.41,15.14v73.98c0,9.19,3.23,15.14,12.41,15.14s12.42-6.21,12.42-15.39v-12.91h35.74v12.91c0,33.77-15.64,50.15-49.39,50.15s-49.4-18.37-49.4-52.13v-69.76c0-33.77,15.64-51.89,49.4-51.89Z"/>
  <path class="cls-1" d="M190.8,57.11h38.22v123.13c-.74,35.75-18.36,50.65-50.14,50.65-36.99,0-50.15-24.82-49.4-58.59l37.98.25c-.25,9.68,2.73,23.08,11.92,23.34,7.69.24,11.42-5.22,11.42-15.65V57.11Z"/>
  <path class="cls-1" d="M278.24,57.11l23.58,80.94V57.11h32.52v173.78h-41.95l-25.82-88.63v88.63h-32.51V57.11h44.19Z"/>
</svg>